<svg xmlns="http://www.w3.org/2000/svg" xmlns:xlink="http://www.w3.org/1999/xlink" viewBox="0 0 286.61 83.06"><defs><linearGradient id="Безымянный_градиент_21" x1="63.7" y1="57.27" x2="0.9" y2="4.57" gradientUnits="userSpaceOnUse"><stop offset="0.17" stop-color="#8832b0"/><stop offset="1" stop-color="#fc0844"/></linearGradient><linearGradient id="Безымянный_градиент_18" x1="73.98" y1="42.74" x2="286.61" y2="42.74" gradientUnits="userSpaceOnUse"><stop offset="0" stop-color="#8832b0"/><stop offset="0.44" stop-color="#8932b0"/><stop offset="0.65" stop-color="#b1238a"/><stop offset="1" stop-color="#fc0844"/></linearGradient></defs><g id="Слой_2" data-name="Слой 2"><g id="Слой_1-2" data-name="Слой 1"><path d="M66.3,10.34C66.3,3.47,62.79,0,55.82,0H40.6l-3,.59A24,24,0,0,0,18.38,28.08c2,12.79,14,21.48,27.07,19.87,2.37-.29,3.16-1.19,3.09-3.59-.16-6.16,0-12.33,0-18.83h8.75c.08.83.2,1.52.2,2.22,0,7.85,0,15.7.05,23.55a3.23,3.23,0,0,1-2.27,3.55c-22.31,9-45.53-6.37-46.34-29C8.51,15.41,12.32,6.34,18.92,0q-4.74,0-9.5,0C3.62.11,0,3.79,0,9.5Q0,30.34,0,51.16c0,4.43,1.76,7.09,5.75,8.75,6.45,2.69,12.87,5.45,19.35,8,1.94.77,2.85,1.78,2.71,3.94a59.2,59.2,0,0,0,0,7.88c.08,1.13.52,2.73,1.32,3.15s2.4-.16,3.26-.82c9.94-7.73,19.8-15.55,29.68-23.35a10.54,10.54,0,0,0,4.25-9C66.22,36.64,66.3,23.49,66.3,10.34ZM57.27,21h-8.5V12.21h8.5Z" style="fill:url(#Безымянный_градиент_21)"/><path d="M80.55,37a14.82,14.82,0,0,0-.81,5.46A15.32,15.32,0,0,0,80.55,48a5,5,0,0,0,2.79,2.88,14.34,14.34,0,0,0,5.46.84q1.62,0,3.12-.15a23.33,23.33,0,0,0,2.72-.42c.82-.18,1.47-.35,2-.51v1.62a1.8,1.8,0,0,1-1.21,1.65,10,10,0,0,1-3.2.78,46,46,0,0,1-4.71.21,26.44,26.44,0,0,1-7.86-1,7,7,0,0,1-4.32-3.54A17.08,17.08,0,0,1,74,42.86,18.66,18.66,0,0,1,75.3,35a7,7,0,0,1,4.32-3.72,25.68,25.68,0,0,1,7.86-1q1.56,0,3,.12c.94.09,2,.22,3.27.42a4.36,4.36,0,0,1,1.64.48,2.17,2.17,0,0,1,.93,1,5.21,5.21,0,0,1,.31,2,10.76,10.76,0,0,0-2.1-.54c-.93-.16-1.9-.28-2.94-.36s-2-.12-2.76-.12a13.93,13.93,0,0,0-5.43.87A5.12,5.12,0,0,0,80.55,37ZM118,32.21a6.79,6.79,0,0,0-3-1.32,27.14,27.14,0,0,0-5.58-.45,34.31,34.31,0,0,0-6.18.48q-2.58.48-4,.9V52.28a2.55,2.55,0,0,0,.48,1.8,1.87,1.87,0,0,0,1.38.48h3.84V34.34a4.77,4.77,0,0,1,1.83-.78,12.46,12.46,0,0,1,4.83-.12,3.7,3.7,0,0,1,1.77.81,2.56,2.56,0,0,1,.75,2.07l.06.84h5.4a13.39,13.39,0,0,0-.27-2.85A3.84,3.84,0,0,0,118,32.21Zm24.5-1.59h-3.66V42a10.09,10.09,0,0,1-.78,4.5,4,4,0,0,1-2.16,2,9.14,9.14,0,0,1-3.18.51,10.94,10.94,0,0,1-3.18-.42,3.59,3.59,0,0,1-2.16-2,12,12,0,0,1-.78-5V30.62h-3.72a2.59,2.59,0,0,0-1.37.27,1.19,1.19,0,0,0-.54.84,6.68,6.68,0,0,0-.12,1.47V42a20.4,20.4,0,0,0,.57,5.16,5.4,5.4,0,0,0,2.54,3.42q2,1.2,6.12,1.2a22.92,22.92,0,0,0,4.2-.33,7.83,7.83,0,0,0,2.91-1.11,4.65,4.65,0,0,0,1.71-2v2.94a9,9,0,0,1-.84,4.14,5,5,0,0,1-2.61,2.36,12.08,12.08,0,0,1-4.65.75,30.82,30.82,0,0,1-3.51-.21c-1.22-.14-2.38-.33-3.48-.56a9.24,9.24,0,0,1-2.61-.91v1.8q0,.84,1.59,1.41a18.26,18.26,0,0,0,4.14.84,52.28,52.28,0,0,0,5.49.27q6.36,0,9.24-2.48c1.92-1.67,2.88-4.29,2.88-7.89V32.66q0-1.44-.48-1.74A3.06,3.06,0,0,0,142.48,30.62Zm29.36,5.07a17.24,17.24,0,0,1,1,7.17,22.17,22.17,0,0,1-1.2,7,6.85,6.85,0,0,1-3.33,3.78A14.35,14.35,0,0,1,162,54.8a17.75,17.75,0,0,1-4.35-.48,6.28,6.28,0,0,1-3-1.65,5.24,5.24,0,0,1-.66-.87V61h-5.69l.06-25.49c0-1,0-2,0-2.76a7,7,0,0,0-.14-1.56,14,14,0,0,1,1.82-.24c.91-.08,1.93-.15,3.09-.21l3.57-.18q1.83-.09,3.27-.09a20.17,20.17,0,0,1,7.95,1.26A7.48,7.48,0,0,1,171.84,35.69Zm-6.15-.15q-1.56-2-5.7-2-.84,0-2.07.06t-2.31.15a15.75,15.75,0,0,0-1.68.21V44.9a8.32,8.32,0,0,0,.84,4.14,4.36,4.36,0,0,0,2.34,2,10.46,10.46,0,0,0,3.54.54q3.42,0,4.95-2.1t1.53-7Q167.25,37.52,165.69,35.54Zm17-9.65V24.27h-3.48a4.52,4.52,0,0,0-1.34.15,1,1,0,0,0-.63.66,5.09,5.09,0,0,0-.19,1.59v3.95h-2.39v3.06H177V48.56a9.5,9.5,0,0,0,.6,3.72,3.5,3.5,0,0,0,1.95,1.92,10.41,10.41,0,0,0,3.75.54,20.26,20.26,0,0,0,2.94-.18l1.56-.24V52a5.56,5.56,0,0,1-1,.24,8.63,8.63,0,0,1-1.35.12q-1.8,0-2.28-1a8.27,8.27,0,0,1-.48-3.33V33.68h5.64V30.62h-5.64ZM213.1,36.2a19.65,19.65,0,0,1,.87,6.42,19.88,19.88,0,0,1-.87,6.48,7.7,7.7,0,0,1-2.49,3.69,9.35,9.35,0,0,1-3.93,1.68,27.08,27.08,0,0,1-5.18.45,28,28,0,0,1-5.31-.45,9.37,9.37,0,0,1-4-1.71A7.61,7.61,0,0,1,189.74,49a20.3,20.3,0,0,1-.84-6.42,20.3,20.3,0,0,1,.84-6.42,7.61,7.61,0,0,1,2.49-3.72,9.37,9.37,0,0,1,4-1.71,28,28,0,0,1,5.31-.45,27.08,27.08,0,0,1,5.18.45,9.14,9.14,0,0,1,3.93,1.71A7.89,7.89,0,0,1,213.1,36.2Zm-4.83,6.42a17.64,17.64,0,0,0-.77-6A4.48,4.48,0,0,0,205.19,34a9.29,9.29,0,0,0-3.69-.66,9.51,9.51,0,0,0-3.72.66,4.53,4.53,0,0,0-2.37,2.64,16.76,16.76,0,0,0-.81,6,16.76,16.76,0,0,0,.81,6,4.53,4.53,0,0,0,2.37,2.64,9.51,9.51,0,0,0,3.72.66,9.29,9.29,0,0,0,3.69-.66,4.48,4.48,0,0,0,2.31-2.64A17.64,17.64,0,0,0,208.27,42.62Zm15.06,10.62a2.14,2.14,0,0,1-2-.87,7.35,7.35,0,0,1-.54-3.45V30.62h-2.88V49.16a8.6,8.6,0,0,0,.81,4.11q.81,1.47,3.27,1.47.9,0,1.59-.06t1.17-.15a5.86,5.86,0,0,0,.66-.15V52.94q-.24.06-1,.18A7.8,7.8,0,0,1,223.33,53.24Zm-5.16-26.51a2.67,2.67,0,0,0,1.2.24,2.63,2.63,0,0,0,1.23-.24,1,1,0,0,0,.45-1q.06-.84-.42-1.08a2.83,2.83,0,0,0-1.26-.24,2.63,2.63,0,0,0-1.23.24q-.45.24-.45,1.08A1,1,0,0,0,218.17,26.73Zm28,5.45a7.25,7.25,0,0,0-3.06-1.35,24.4,24.4,0,0,0-5.22-.45,28,28,0,0,0-6.17.6,20.79,20.79,0,0,0-4.38,1.44v21a1,1,0,0,0,1.14,1.14h1.74V34a6,6,0,0,1,2.13-1,20.41,20.41,0,0,1,2.82-.54,22.27,22.27,0,0,1,2.72-.18q4,0,5.67,1.23a4.37,4.37,0,0,1,1.65,3.75V54.56h1.44a2.6,2.6,0,0,0,.87-.12A.63.63,0,0,0,248,54a3.12,3.12,0,0,0,.09-.81V37.76a12.24,12.24,0,0,0-.39-3.3A4.49,4.49,0,0,0,246.18,32.18ZM257,26.88q.66-.87,2.76-.87c.6,0,1.15,0,1.67.06a12.85,12.85,0,0,1,1.41.18q.63.12,1.05.24v-1.8l-1.41-.15-1.85-.18q-1.05-.09-2.31-.09-2.88,0-3.84,1.32a6.83,6.83,0,0,0-1,4v3.84h-1.92v1.74h1.92V53.24a1.83,1.83,0,0,0,.21,1q.21.27.93.27h1.68V35.18h6.35V33.44h-6.35V30A5.3,5.3,0,0,1,257,26.88Zm29.57,15.74a21,21,0,0,1-.84,6.6,7.75,7.75,0,0,1-2.34,3.66,8,8,0,0,1-3.6,1.59,25.36,25.36,0,0,1-4.62.39,24.87,24.87,0,0,1-4.59-.39,8,8,0,0,1-3.6-1.62,7.84,7.84,0,0,1-2.37-3.69,20.77,20.77,0,0,1-.84-6.54,20.77,20.77,0,0,1,.84-6.54A7.84,7.84,0,0,1,267,32.39a8,8,0,0,1,3.6-1.62,24.87,24.87,0,0,1,4.59-.39,25.36,25.36,0,0,1,4.62.39,7.82,7.82,0,0,1,3.6,1.62,8,8,0,0,1,2.34,3.69A20.77,20.77,0,0,1,286.61,42.62Zm-3,0a17.78,17.78,0,0,0-1-6.81,5.2,5.2,0,0,0-2.88-3,12.74,12.74,0,0,0-4.53-.72,12.55,12.55,0,0,0-4.47.72,5.3,5.3,0,0,0-2.91,3,17.31,17.31,0,0,0-1,6.81,17.31,17.31,0,0,0,1,6.81,5.3,5.3,0,0,0,2.91,3,12.55,12.55,0,0,0,4.47.72,12.74,12.74,0,0,0,4.53-.72,5.2,5.2,0,0,0,2.88-3A17.78,17.78,0,0,0,283.61,42.62Z" style="fill:url(#Безымянный_градиент_18)"/></g></g></svg>